<svg width="1257" height="798" viewBox="0 0 1257 798" fill="none" xmlns="http://www.w3.org/2000/svg">
<rect width="1257" height="798" rx="10" fill="white"/>
<rect x="975.5" y="690.5" width="159" height="47" rx="15.5" fill="#F4F2F2" stroke="#C8C8C8"/>
<path d="M1049.96 703.48H1051.62V713.66H1049.96V703.48ZM1051.16 707.72H1054.3V709.12H1051.16V707.72ZM1038.42 711.24H1039.82C1043.54 711.24 1045.64 711.12 1048.06 710.64L1048.24 711.98C1045.76 712.5 1043.62 712.62 1039.82 712.62H1038.42V711.24ZM1038.42 704.66H1046.38V706H1040.06V712.06H1038.42V704.66ZM1040.32 714.66H1051.78V716.02H1041.98V720.6H1040.32V714.66ZM1040.32 719.98H1052.12V721.32H1040.32V719.98ZM1069.16 703.48H1070.82V721.56H1069.16V703.48ZM1063.86 705.42H1065.5C1065.5 710.66 1063.14 715.24 1057.1 718.2L1056.22 716.86C1061.44 714.34 1063.86 710.5 1063.86 705.7V705.42ZM1057.04 705.42H1064.58V706.78H1057.04V705.42Z" fill="#555555"/>
<rect x="795" y="690" width="160" height="48" rx="16" fill="#303A63"/>
<path d="M843.449 704.32H846.229C846.229 709.2 843.229 712.56 837.809 714.04L836.769 711.98C841.189 710.78 843.449 708.42 843.449 705.58V704.32ZM837.789 704.32H845.289V706.42H837.789V704.32ZM849.529 703.26H852.189V713.62H849.529V703.26ZM846.329 707.64H849.909V709.8H846.329V707.64ZM839.989 714.36H852.189V721.58H839.989V714.36ZM849.569 716.46H842.609V719.48H849.569V716.46ZM859.247 704.68H861.407V707.38C861.407 711.96 859.807 716.26 856.307 717.98L854.707 715.84C857.827 714.38 859.247 710.82 859.247 707.38V704.68ZM859.787 704.68H861.907V707.38C861.907 710.7 863.227 714.08 866.187 715.52L864.587 717.64C861.247 715.94 859.787 711.82 859.787 707.38V704.68ZM866.927 703.26H869.607V721.78H866.927V703.26ZM869.007 710.38H872.287V712.6H869.007V710.38ZM882.634 704.68H884.794V707.38C884.794 712.14 883.154 716.44 879.474 718.14L877.894 715.94C881.114 714.54 882.634 710.98 882.634 707.38V704.68ZM883.154 704.68H885.314V707.38C885.314 710.8 886.774 714.2 889.934 715.56L888.374 717.7C884.794 716.06 883.154 711.94 883.154 707.38V704.68ZM890.814 703.24H893.494V721.82H890.814V703.24ZM900.633 705.16H902.813V706.32C902.813 709.82 901.153 712.96 897.613 714.1L896.233 712.04C899.333 711.04 900.633 708.64 900.633 706.32V705.16ZM901.173 705.16H903.333V706.32C903.333 708.5 904.593 710.76 907.593 711.72L906.233 713.78C902.773 712.66 901.173 709.64 901.173 706.32V705.16ZM896.953 704.34H906.953V706.46H896.953V704.34ZM908.433 703.26H911.093V714.42H908.433V703.26ZM910.353 707.74H913.553V709.92H910.353V707.74ZM898.733 715.22H911.093V721.78H908.433V717.36H898.733V715.22Z" fill="white"/>
<line x1="111" y1="662.5" x2="1135" y2="662.5" stroke="#303A63" stroke-width="3"/>
<path d="M758.817 272.182L758.923 270.533L757.543 271.457L756.972 270.452L758.459 269.727L756.972 269.003L757.543 267.997L758.923 268.922L758.817 267.273H759.963L759.852 268.922L761.233 267.997L761.804 269.003L760.321 269.727L761.804 270.452L761.233 271.457L759.852 270.533L759.963 272.182H758.817ZM766.175 266.976H772.307V268.248H766.175V266.976ZM766.055 274.536L765.887 273.228C767.819 273.228 770.435 273.204 772.631 272.928L772.715 274.092C770.471 274.488 767.951 274.536 766.055 274.536ZM767.123 267.972H768.671V273.576H767.123V267.972ZM769.811 267.972H771.359V273.576H769.811V267.972ZM773.135 265.956H774.743V277.068H773.135V265.956ZM774.383 270.168H776.351V271.476H774.383V270.168ZM780.202 266.28C781.894 266.28 783.166 267.336 783.166 268.824C783.166 270.3 781.894 271.356 780.202 271.356C778.51 271.356 777.238 270.3 777.238 268.824C777.238 267.336 778.51 266.28 780.202 266.28ZM780.202 267.576C779.386 267.576 778.774 268.032 778.774 268.824C778.774 269.616 779.386 270.072 780.202 270.072C781.018 270.072 781.618 269.616 781.618 268.824C781.618 268.032 781.018 267.576 780.202 267.576ZM784.702 265.956H786.31V271.512H784.702V265.956ZM778.894 271.968H786.31V275.016H780.478V276.36H778.918V273.864H784.726V273.204H778.894V271.968ZM778.918 275.712H786.586V276.948H778.918V275.712ZM797.99 265.944H799.598V277.092H797.99V265.944ZM799.238 270.06H801.206V271.368H799.238V270.06ZM791.318 273.096H792.254C794.126 273.096 795.602 273.036 797.234 272.748L797.39 274.068C795.71 274.368 794.186 274.416 792.254 274.416H791.318V273.096ZM791.318 266.976H796.502V268.26H792.902V273.732H791.318V266.976ZM801.925 271.356H811.993V272.616H801.925V271.356ZM806.233 272.184H807.853V274.524H806.233V272.184ZM803.101 275.592H810.889V276.876H803.101V275.592ZM803.101 273.552H804.709V275.916H803.101V273.552ZM806.953 266.16C809.341 266.16 810.949 267.06 810.949 268.464C810.949 269.88 809.341 270.768 806.953 270.768C804.553 270.768 802.957 269.88 802.957 268.464C802.957 267.06 804.553 266.16 806.953 266.16ZM806.953 267.42C805.549 267.42 804.673 267.78 804.673 268.464C804.673 269.148 805.549 269.496 806.953 269.496C808.357 269.496 809.233 269.148 809.233 268.464C809.233 267.78 808.357 267.42 806.953 267.42ZM818.454 266.808H819.75V268.428C819.75 271.284 818.766 273.864 816.558 274.884L815.61 273.564C817.542 272.724 818.454 270.588 818.454 268.428V266.808ZM818.766 266.808H820.062V268.428C820.062 270.48 820.938 272.52 822.834 273.336L821.898 274.62C819.75 273.636 818.766 271.164 818.766 268.428V266.808ZM823.362 265.944H824.97V277.092H823.362V265.944ZM832.03 267.096H833.338V267.792C833.338 269.892 832.342 271.776 830.218 272.46L829.39 271.224C831.25 270.624 832.03 269.184 832.03 267.792V267.096ZM832.354 267.096H833.65V267.792C833.65 269.1 834.406 270.456 836.206 271.032L835.39 272.268C833.314 271.596 832.354 269.784 832.354 267.792V267.096ZM829.822 266.604H835.822V267.876H829.822V266.604ZM836.71 265.956H838.306V272.652H836.71V265.956ZM837.862 268.644H839.782V269.952H837.862V268.644ZM830.89 273.132H838.306V277.068H836.71V274.416H830.89V273.132ZM843.177 266.532H844.509V267.528C844.509 269.76 843.513 271.716 841.329 272.448L840.501 271.164C842.397 270.552 843.177 269.052 843.177 267.528V266.532ZM843.513 266.532H844.797V267.456C844.797 268.932 845.517 270.3 847.281 270.864L846.453 272.112C844.401 271.404 843.513 269.616 843.513 267.456V266.532ZM848.301 265.956H849.897V272.46H848.301V265.956ZM846.129 272.748C848.481 272.748 849.933 273.552 849.933 274.908C849.933 276.276 848.481 277.068 846.129 277.068C843.777 277.068 842.325 276.276 842.325 274.908C842.325 273.552 843.777 272.748 846.129 272.748ZM846.129 273.984C844.689 273.984 843.921 274.284 843.921 274.908C843.921 275.532 844.689 275.844 846.129 275.844C847.581 275.844 848.349 275.532 848.349 274.908C848.349 274.284 847.581 273.984 846.129 273.984ZM846.273 267.972H848.529V269.268H846.273V267.972ZM858.764 265.956H860.348V277.068H858.764V265.956ZM859.988 270.288H861.956V271.62H859.988V270.288ZM851.588 267.6H858.056V268.872H851.588V267.6ZM854.84 269.496C856.46 269.496 857.66 270.6 857.66 272.148C857.66 273.696 856.46 274.8 854.84 274.8C853.22 274.8 852.02 273.696 852.02 272.148C852.02 270.6 853.22 269.496 854.84 269.496ZM854.84 270.792C854.084 270.792 853.544 271.296 853.544 272.148C853.544 273 854.084 273.504 854.84 273.504C855.596 273.504 856.136 273 856.136 272.148C856.136 271.296 855.596 270.792 854.84 270.792ZM854.036 266.136H855.632V268.08H854.036V266.136ZM870.307 265.968H871.915V274.068H870.307V265.968ZM864.511 275.604H872.191V276.876H864.511V275.604ZM864.511 273.288H866.107V276.264H864.511V273.288ZM865.279 266.568H866.599V267.648C866.599 269.82 865.603 271.824 863.443 272.58L862.639 271.308C864.499 270.672 865.279 269.124 865.279 267.648V266.568ZM865.603 266.568H866.911V267.648C866.911 269.1 867.667 270.528 869.491 271.116L868.675 272.388C866.575 271.68 865.603 269.796 865.603 267.648V266.568ZM880.548 266.592H882.216C882.216 269.52 880.416 271.536 877.164 272.424L876.54 271.188C879.192 270.468 880.548 269.052 880.548 267.348V266.592ZM877.152 266.592H881.652V267.852H877.152V266.592ZM884.196 265.956H885.792V272.172H884.196V265.956ZM882.276 268.584H884.424V269.88H882.276V268.584ZM878.472 272.616H885.792V276.948H878.472V272.616ZM884.22 273.876H880.044V275.688H884.22V273.876ZM890.027 266.808H891.323V268.428C891.323 271.176 890.363 273.756 888.263 274.788L887.303 273.504C889.175 272.628 890.027 270.492 890.027 268.428V266.808ZM890.351 266.808H891.623V268.428C891.623 270.42 892.415 272.448 894.191 273.312L893.231 274.584C891.227 273.564 890.351 271.092 890.351 268.428V266.808ZM894.635 265.956H896.243V277.068H894.635V265.956ZM895.883 270.228H897.851V271.56H895.883V270.228ZM903.946 267.564H906.778V268.824H903.946V267.564ZM903.946 269.784H906.826V271.056H903.946V269.784ZM906.274 265.956H907.87V272.46H906.274V265.956ZM899.026 266.76H904.282V271.86H899.026V266.76ZM902.71 268.02H900.598V270.612H902.71V268.02ZM904.102 272.748C906.454 272.748 907.906 273.552 907.906 274.908C907.906 276.276 906.454 277.068 904.102 277.068C901.75 277.068 900.298 276.276 900.298 274.908C900.298 273.552 901.75 272.748 904.102 272.748ZM904.102 273.972C902.662 273.972 901.894 274.272 901.894 274.908C901.894 275.544 902.662 275.856 904.102 275.856C905.554 275.856 906.322 275.544 906.322 274.908C906.322 274.272 905.554 273.972 904.102 273.972ZM914.637 266.508C916.977 266.508 918.789 267.792 918.789 269.724C918.789 271.668 916.977 272.94 914.637 272.94C912.297 272.94 910.485 271.668 910.485 269.724C910.485 267.792 912.297 266.508 914.637 266.508ZM914.637 267.804C913.125 267.804 912.045 268.524 912.045 269.724C912.045 270.912 913.125 271.632 914.637 271.632C916.149 271.632 917.229 270.912 917.229 269.724C917.229 268.524 916.149 267.804 914.637 267.804ZM909.621 274.428H919.677V275.736H909.621V274.428ZM920.66 274.548H930.716V275.844H920.66V274.548ZM924.872 272.448H926.468V275.076H924.872V272.448ZM921.788 266.676H929.588V270.372H923.396V272.244H921.812V269.124H928.004V267.936H921.788V266.676ZM921.812 271.608H929.84V272.892H921.812V271.608ZM934.608 266.976H940.74V268.248H934.608V266.976ZM934.488 274.536L934.32 273.228C936.252 273.228 938.868 273.204 941.064 272.928L941.148 274.092C938.904 274.488 936.384 274.536 934.488 274.536ZM935.556 267.972H937.104V273.576H935.556V267.972ZM938.244 267.972H939.792V273.576H938.244V267.972ZM941.568 265.956H943.176V277.068H941.568V265.956ZM942.816 270.168H944.784V271.476H942.816V270.168ZM948.635 266.28C950.327 266.28 951.599 267.336 951.599 268.824C951.599 270.3 950.327 271.356 948.635 271.356C946.943 271.356 945.671 270.3 945.671 268.824C945.671 267.336 946.943 266.28 948.635 266.28ZM948.635 267.576C947.819 267.576 947.207 268.032 947.207 268.824C947.207 269.616 947.819 270.072 948.635 270.072C949.451 270.072 950.051 269.616 950.051 268.824C950.051 268.032 949.451 267.576 948.635 267.576ZM953.135 265.956H954.743V271.512H953.135V265.956ZM947.327 271.968H954.743V275.016H948.911V276.36H947.351V273.864H953.159V273.204H947.327V271.968ZM947.351 275.712H955.019V276.948H947.351V275.712ZM964.696 267.564H967.528V268.824H964.696V267.564ZM964.696 269.784H967.576V271.056H964.696V269.784ZM967.024 265.956H968.62V272.46H967.024V265.956ZM959.776 266.76H965.032V271.86H959.776V266.76ZM963.46 268.02H961.348V270.612H963.46V268.02ZM964.852 272.748C967.204 272.748 968.656 273.552 968.656 274.908C968.656 276.276 967.204 277.068 964.852 277.068C962.5 277.068 961.048 276.276 961.048 274.908C961.048 273.552 962.5 272.748 964.852 272.748ZM964.852 273.972C963.412 273.972 962.644 274.272 962.644 274.908C962.644 275.544 963.412 275.856 964.852 275.856C966.304 275.856 967.072 275.544 967.072 274.908C967.072 274.272 966.304 273.972 964.852 273.972ZM977.979 265.944H979.587V277.092H977.979V265.944ZM973.599 266.724C975.279 266.724 976.515 268.26 976.515 270.684C976.515 273.132 975.279 274.668 973.599 274.668C971.919 274.668 970.683 273.132 970.683 270.684C970.683 268.26 971.919 266.724 973.599 266.724ZM973.599 268.176C972.771 268.176 972.207 269.052 972.207 270.684C972.207 272.34 972.771 273.228 973.599 273.228C974.427 273.228 974.979 272.34 974.979 270.684C974.979 269.052 974.427 268.176 973.599 268.176ZM986.647 267.096H987.955V267.792C987.955 269.892 986.959 271.776 984.835 272.46L984.007 271.224C985.867 270.624 986.647 269.184 986.647 267.792V267.096ZM986.971 267.096H988.267V267.792C988.267 269.1 989.023 270.456 990.823 271.032L990.007 272.268C987.931 271.596 986.971 269.784 986.971 267.792V267.096ZM984.439 266.604H990.439V267.876H984.439V266.604ZM991.327 265.956H992.923V272.652H991.327V265.956ZM992.479 268.644H994.399V269.952H992.479V268.644ZM985.507 273.132H992.923V277.068H991.327V274.416H985.507V273.132ZM997.794 266.532H999.126V267.528C999.126 269.76 998.13 271.716 995.946 272.448L995.118 271.164C997.014 270.552 997.794 269.052 997.794 267.528V266.532ZM998.13 266.532H999.414V267.456C999.414 268.932 1000.13 270.3 1001.9 270.864L1001.07 272.112C999.018 271.404 998.13 269.616 998.13 267.456V266.532ZM1002.92 265.956H1004.51V272.46H1002.92V265.956ZM1000.75 272.748C1003.1 272.748 1004.55 273.552 1004.55 274.908C1004.55 276.276 1003.1 277.068 1000.75 277.068C998.394 277.068 996.942 276.276 996.942 274.908C996.942 273.552 998.394 272.748 1000.75 272.748ZM1000.75 273.984C999.306 273.984 998.538 274.284 998.538 274.908C998.538 275.532 999.306 275.844 1000.75 275.844C1002.2 275.844 1002.97 275.532 1002.97 274.908C1002.97 274.284 1002.2 273.984 1000.75 273.984ZM1000.89 267.972H1003.15V269.268H1000.89V267.972ZM1009.11 269.676H1010.72V271.488H1009.11V269.676ZM1013.93 265.956H1015.54V272.4H1013.93V265.956ZM1006.48 272.28L1006.28 271.044C1008.27 271.044 1010.96 271.02 1013.25 270.72L1013.36 271.812C1011.01 272.232 1008.43 272.268 1006.48 272.28ZM1007.21 268.896H1012.61V270.144H1007.21V268.896ZM1007.21 266.46H1012.55V267.732H1008.81V269.292H1007.21V266.46ZM1008.01 272.844H1009.59V273.672H1013.96V272.844H1015.54V276.948H1008.01V272.844ZM1009.59 274.872V275.688H1013.96V274.872H1009.59ZM1024.98 265.956H1026.58V277.068H1024.98V265.956ZM1017.88 267.012H1019.46V273.912H1017.88V267.012ZM1017.88 272.976H1018.86C1020.48 272.976 1022.28 272.856 1024.12 272.496L1024.3 273.816C1022.39 274.212 1020.56 274.332 1018.86 274.332H1017.88V272.976ZM1035.44 265.944H1037.04V277.092H1035.44V265.944ZM1036.68 270.06H1038.65V271.368H1036.68V270.06ZM1028.76 273.096H1029.7C1031.57 273.096 1033.05 273.036 1034.68 272.748L1034.84 274.068C1033.16 274.368 1031.63 274.416 1029.7 274.416H1028.76V273.096ZM1028.76 266.976H1033.95V268.26H1030.35V273.732H1028.76V266.976ZM1040.68 276.111C1040.39 276.111 1040.15 276.011 1039.95 275.812C1039.75 275.611 1039.65 275.369 1039.65 275.088C1039.65 274.81 1039.75 274.571 1039.95 274.372C1040.15 274.173 1040.39 274.074 1040.68 274.074C1040.95 274.074 1041.19 274.173 1041.39 274.372C1041.6 274.571 1041.7 274.81 1041.7 275.088C1041.7 275.276 1041.65 275.447 1041.55 275.604C1041.46 275.757 1041.34 275.881 1041.18 275.974C1041.03 276.065 1040.86 276.111 1040.68 276.111Z" fill="#A9A9A9" fill-opacity="0.976471"/>
<rect x="756.5" y="215.5" width="365" height="31" rx="3.5" fill="white" stroke="#BBBBBB"/>
<rect x="756.5" y="312.5" width="247" height="31" rx="3.5" fill="white" stroke="#BBBBBB"/>
<path d="M768.984 324.5C768.984 325.953 770.039 327.324 771.562 327.875L771.047 328.59C769.904 328.133 768.996 327.225 768.551 326.094C768.105 327.354 767.156 328.355 765.926 328.848L765.434 328.098C766.992 327.523 768.07 326.07 768.082 324.465V323.176H768.984V324.5ZM774.059 322.543V330.348H773.133V325.766H770.812V324.992H773.133V322.543H774.059ZM774.293 331.953V332.727H767.32V329.457H768.246V331.953H774.293ZM780.305 323.293V324.066H777.141V325.367H780.188V326.094H777.141V327.535C778.658 327.529 779.607 327.477 780.727 327.254L780.82 328.016C779.602 328.25 778.617 328.309 776.918 328.309H776.262V323.293H780.305ZM784.641 322.543V328.859H783.762V326.012H782.297V328.789H781.441V322.742H782.297V325.262H783.762V322.543H784.641ZM784.641 329.398V332.949H783.738V330.148H777.621V329.398H784.641Z" fill="black"/>
<path d="M654.56 224.32H657.34C657.34 229.2 654.34 232.56 648.92 234.04L647.88 231.98C652.3 230.78 654.56 228.42 654.56 225.58V224.32ZM648.9 224.32H656.4V226.42H648.9V224.32ZM660.64 223.26H663.3V233.62H660.64V223.26ZM657.44 227.64H661.02V229.8H657.44V227.64ZM651.1 234.36H663.3V241.58H651.1V234.36ZM660.68 236.46H653.72V239.48H660.68V236.46ZM670.358 224.68H672.518V227.38C672.518 231.96 670.918 236.26 667.418 237.98L665.818 235.84C668.938 234.38 670.358 230.82 670.358 227.38V224.68ZM670.898 224.68H673.018V227.38C673.018 230.7 674.338 234.08 677.298 235.52L675.698 237.64C672.358 235.94 670.898 231.82 670.898 227.38V224.68ZM678.038 223.26H680.718V241.78H678.038V223.26ZM680.118 230.38H683.398V232.6H680.118V230.38ZM693.557 225.94H698.277V228.04H693.557V225.94ZM693.557 229.64H698.357V231.76H693.557V229.64ZM697.437 223.26H700.097V234.1H697.437V223.26ZM685.357 224.6H694.117V233.1H685.357V224.6ZM691.497 226.7H687.977V231.02H691.497V226.7ZM693.817 234.58C697.737 234.58 700.157 235.92 700.157 238.18C700.157 240.46 697.737 241.78 693.817 241.78C689.897 241.78 687.477 240.46 687.477 238.18C687.477 235.92 689.897 234.58 693.817 234.58ZM693.817 236.62C691.417 236.62 690.137 237.12 690.137 238.18C690.137 239.24 691.417 239.76 693.817 239.76C696.237 239.76 697.517 239.24 697.517 238.18C697.517 237.12 696.237 236.62 693.817 236.62ZM654.56 320.32H657.34C657.34 325.2 654.34 328.56 648.92 330.04L647.88 327.98C652.3 326.78 654.56 324.42 654.56 321.58V320.32ZM648.9 320.32H656.4V322.42H648.9V320.32ZM660.64 319.26H663.3V329.62H660.64V319.26ZM657.44 323.64H661.02V325.8H657.44V323.64ZM651.1 330.36H663.3V337.58H651.1V330.36ZM660.68 332.46H653.72V335.48H660.68V332.46ZM670.358 320.68H672.518V323.38C672.518 327.96 670.918 332.26 667.418 333.98L665.818 331.84C668.938 330.38 670.358 326.82 670.358 323.38V320.68ZM670.898 320.68H673.018V323.38C673.018 326.7 674.338 330.08 677.298 331.52L675.698 333.64C672.358 331.94 670.898 327.82 670.898 323.38V320.68ZM678.038 319.26H680.718V337.78H678.038V319.26ZM680.118 326.38H683.398V328.6H680.118V326.38ZM693.377 330.96H696.097V337.78H693.377V330.96ZM699.777 330.96H702.497V337.78H699.777V330.96ZM689.597 329.56H706.377V331.7H689.597V329.56ZM697.937 319.88C701.897 319.88 704.637 321.5 704.637 324.04C704.637 326.54 701.897 328.16 697.937 328.16C693.997 328.16 691.257 326.54 691.257 324.04C691.257 321.5 693.997 319.88 697.937 319.88ZM697.937 322C695.517 322 693.977 322.72 693.977 324.04C693.977 325.34 695.517 326.06 697.937 326.06C700.377 326.06 701.897 325.34 701.897 324.04C701.897 322.72 700.377 322 697.937 322ZM718.455 323.32H721.855V325.44H718.455V323.32ZM718.415 327.02H721.795V329.14H718.415V327.02ZM708.055 320.92H718.215V323.02H708.055V320.92ZM713.255 323.66C715.795 323.66 717.595 325.06 717.595 327.12C717.595 329.18 715.795 330.58 713.255 330.58C710.715 330.58 708.915 329.18 708.915 327.12C708.915 325.06 710.715 323.66 713.255 323.66ZM713.255 325.64C712.135 325.64 711.395 326.14 711.395 327.12C711.395 328.1 712.135 328.6 713.255 328.6C714.355 328.6 715.135 328.1 715.135 327.12C715.135 326.14 714.355 325.64 713.255 325.64ZM711.935 319.1H714.595V322.38H711.935V319.1ZM720.835 319.26H723.495V331.06H720.835V319.26ZM717.235 331.28C721.135 331.28 723.575 332.5 723.575 334.54C723.575 336.58 721.135 337.78 717.235 337.78C713.315 337.78 710.895 336.58 710.895 334.54C710.895 332.5 713.315 331.28 717.235 331.28ZM717.235 333.32C714.955 333.32 713.695 333.68 713.695 334.54C713.695 335.38 714.955 335.78 717.235 335.78C719.515 335.78 720.755 335.38 720.755 334.54C720.755 333.68 719.515 333.32 717.235 333.32ZM648.04 416.96H658.26V419.08H648.04V416.96ZM647.84 429.56L647.56 427.38C650.78 427.38 655.14 427.34 658.8 426.88L658.94 428.82C655.2 429.48 651 429.56 647.84 429.56ZM649.62 418.62H652.2V427.96H649.62V418.62ZM654.1 418.62H656.68V427.96H654.1V418.62ZM659.64 415.26H662.32V433.78H659.64V415.26ZM661.72 422.28H665V424.46H661.72V422.28ZM671.418 415.8C674.238 415.8 676.358 417.56 676.358 420.04C676.358 422.5 674.238 424.26 671.418 424.26C668.598 424.26 666.478 422.5 666.478 420.04C666.478 417.56 668.598 415.8 671.418 415.8ZM671.418 417.96C670.058 417.96 669.038 418.72 669.038 420.04C669.038 421.36 670.058 422.12 671.418 422.12C672.778 422.12 673.778 421.36 673.778 420.04C673.778 418.72 672.778 417.96 671.418 417.96ZM678.918 415.26H681.598V424.52H678.918V415.26ZM669.238 425.28H681.598V430.36H671.878V432.6H669.278V428.44H678.958V427.34H669.238V425.28ZM669.278 431.52H682.058V433.58H669.278V431.52ZM691.497 416.88H703.157V419H691.497V416.88ZM689.617 429.42H706.357V431.6H689.617V429.42ZM702.037 416.88H704.657V419.02C704.657 421.72 704.657 424.28 703.797 428.32L701.177 428.08C702.037 424.34 702.037 421.64 702.037 419.02V416.88ZM702.597 421.96V423.92L691.277 424.48L690.957 422.34L702.597 421.96ZM720.755 415.26H723.435V433.78H720.755V415.26ZM715.295 417.18H717.935C717.935 422.84 716.015 427.48 709.435 430.66L708.055 428.54C713.375 425.98 715.295 422.62 715.295 417.66V417.18ZM709.035 417.18H716.555V419.28H709.035V417.18Z" fill="#555555"/>
<path d="M630.008 236.72C628.904 236.72 627.968 236.336 627.2 235.568C626.432 234.8 626.048 233.864 626.048 232.76C626.048 231.672 626.432 230.744 627.2 229.976C627.968 229.208 628.904 228.824 630.008 228.824C631.096 228.824 632.024 229.208 632.792 229.976C633.56 230.744 633.944 231.672 633.944 232.76C633.944 233.864 633.56 234.8 632.792 235.568C632.024 236.336 631.096 236.72 630.008 236.72ZM630.008 332.72C628.904 332.72 627.968 332.336 627.2 331.568C626.432 330.8 626.048 329.864 626.048 328.76C626.048 327.672 626.432 326.744 627.2 325.976C627.968 325.208 628.904 324.824 630.008 324.824C631.096 324.824 632.024 325.208 632.792 325.976C633.56 326.744 633.944 327.672 633.944 328.76C633.944 329.864 633.56 330.8 632.792 331.568C632.024 332.336 631.096 332.72 630.008 332.72ZM630.008 428.72C628.904 428.72 627.968 428.336 627.2 427.568C626.432 426.8 626.048 425.864 626.048 424.76C626.048 423.672 626.432 422.744 627.2 421.976C627.968 421.208 628.904 420.824 630.008 420.824C631.096 420.824 632.024 421.208 632.792 421.976C633.56 422.744 633.944 423.672 633.944 424.76C633.944 425.864 633.56 426.8 632.792 427.568C632.024 428.336 631.096 428.72 630.008 428.72Z" fill="#303A63"/>
<path d="M764.785 468.285H763.684L763.789 466.668L762.441 467.57L761.891 466.621L763.344 465.906L761.891 465.18L762.441 464.23L763.789 465.133L763.684 463.516H764.785L764.68 465.133L766.027 464.23L766.578 465.18L765.125 465.906L766.578 466.621L766.027 467.57L764.68 466.668L764.785 468.285ZM776.633 463.398V464.594H775.684V469.246C776.117 469.211 776.539 469.17 776.949 469.117L777.031 470.195C774.852 470.582 772.402 470.617 770.574 470.629L770.41 469.41L771.629 469.398V464.594H770.68V463.398H776.633ZM778.965 462.414V466.469H780.535V467.688H778.965V473.078H777.465V462.414H778.965ZM773.07 469.375L774.242 469.328V464.594H773.07V469.375ZM783.957 462.73C785.574 462.73 786.805 463.738 786.805 465.168C786.805 466.574 785.574 467.594 783.957 467.594C782.305 467.594 781.086 466.574 781.086 465.168C781.086 463.738 782.305 462.73 783.957 462.73ZM783.957 463.949C783.137 463.949 782.527 464.395 782.539 465.168C782.527 465.93 783.137 466.387 783.957 466.387C784.766 466.387 785.363 465.93 785.363 465.168C785.363 464.395 784.766 463.949 783.957 463.949ZM789.852 462.414V467.758H788.352V462.414H789.852ZM789.852 468.203V471.098H784.18V471.789H790.145V472.961H782.715V470.008H788.363V469.352H782.691V468.203H789.852ZM800.141 463.48V464.652H797.984C798.014 465.725 798.787 466.803 800.48 467.254L799.801 468.402C798.588 468.086 797.744 467.418 797.258 466.551C796.789 467.506 795.939 468.25 794.68 468.59L793.977 467.441C795.67 466.979 796.473 465.83 796.496 464.652H794.352V463.48H796.496V462.367H798.008V463.48H800.141ZM802.52 462.414V464.922H803.961V466.141H802.52V468.66H801.02V462.414H802.52ZM802.52 469.105V472.961H795.547V469.105H802.52ZM797.023 470.289V471.766H801.043V470.289H797.023ZM813.219 463.34V464.348C813.219 465.684 813.219 467.184 812.785 469.445L811.285 469.293C811.689 467.277 811.707 465.777 811.719 464.523H805.438V463.34H813.219ZM814.156 470.559V471.777H804.43V470.559H807.91V466.891H809.398V470.559H814.156ZM823.262 462.426V465.484H824.703V466.738H823.262V470.277H821.762V462.426H823.262ZM823.672 471.695V472.891H816.383V469.645H817.895V471.695H823.672ZM820.074 463.07V466.41H816.676V467.535C818.439 467.529 819.635 467.453 820.988 467.207L821.152 468.414C819.617 468.695 818.246 468.742 816.09 468.742H815.188V465.285H818.621V464.266H815.176V463.07H820.074ZM766.518 482.506V483.141H761.352V482.506H763.549V481.217H764.311V482.506H766.518ZM763.939 483.863C765.111 483.863 765.971 484.693 765.98 485.855C765.971 487.008 765.111 487.848 763.939 487.848C762.758 487.848 761.889 487.008 761.889 485.855C761.889 484.693 762.758 483.863 763.939 483.863ZM763.939 484.518C763.178 484.527 762.602 485.084 762.611 485.855C762.602 486.637 763.178 487.193 763.939 487.184C764.701 487.193 765.277 486.637 765.277 485.855C765.277 485.084 764.701 484.527 763.939 484.518ZM768.549 481.109V489.791H767.787V485.406H766.332V484.762H767.787V481.109H768.549ZM777.904 485.406V486.041H769.994V485.406H771.957V484.186C771.264 483.917 770.873 483.473 770.873 482.887C770.873 481.861 772.045 481.275 773.949 481.275C775.834 481.275 777.016 481.861 777.016 482.887C777.016 483.468 776.63 483.912 775.941 484.176V485.406H777.904ZM773.949 486.705C775.814 486.705 776.928 487.242 776.938 488.238C776.928 489.225 775.814 489.771 773.949 489.771C772.064 489.771 770.951 489.225 770.951 488.238C770.951 487.242 772.064 486.705 773.949 486.705ZM773.949 487.291C772.553 487.301 771.723 487.643 771.732 488.238C771.723 488.824 772.553 489.176 773.949 489.176C775.326 489.176 776.166 488.824 776.166 488.238C776.166 487.643 775.326 487.301 773.949 487.291ZM773.949 481.881C772.533 481.881 771.654 482.262 771.664 482.887C771.654 483.521 772.533 483.893 773.949 483.893C775.355 483.893 776.234 483.521 776.234 482.887C776.234 482.262 775.355 481.881 773.949 481.881ZM772.719 485.406H775.18V484.391C774.813 484.454 774.403 484.488 773.949 484.488C773.495 484.488 773.085 484.454 772.719 484.391V485.406ZM787.924 481.119V483.746H789.223V484.391H787.924V486.939H787.152V481.119H787.924ZM781.107 486.051C781.801 486.051 782.611 486.051 783.461 486.021V485.387C782.45 485.299 781.801 484.825 781.801 484.107C781.801 483.316 782.611 482.828 783.832 482.828C785.062 482.828 785.863 483.316 785.873 484.107C785.863 484.82 785.229 485.294 784.223 485.387V485.992C785.033 485.953 785.854 485.89 786.615 485.777L786.684 486.334C784.799 486.666 782.719 486.676 781.195 486.676L781.107 486.051ZM787.924 487.369V489.791H787.152V487.984H782.172V487.369H787.924ZM786.352 481.91V482.496H781.322V481.91H783.461V481.041H784.223V481.91H786.352ZM783.832 483.375C783.031 483.365 782.533 483.648 782.533 484.107C782.533 484.557 783.031 484.869 783.832 484.859C784.633 484.869 785.141 484.557 785.141 484.107C785.141 483.648 784.633 483.365 783.832 483.375ZM792.729 482.76C792.729 483.893 793.578 484.908 794.857 485.328L794.496 485.934C793.495 485.606 792.738 484.913 792.367 484.039C791.991 485.035 791.19 485.812 790.15 486.188L789.76 485.572C791.059 485.133 791.967 484.01 791.977 482.76V482.389H789.994V481.754H794.682V482.389H792.729V482.76ZM796.576 481.109V483.326H797.885V483.971H796.576V486.354H795.814V481.109H796.576ZM793.793 486.588C795.58 486.588 796.654 487.174 796.654 488.17C796.654 489.186 795.58 489.771 793.793 489.771C792.006 489.771 790.912 489.186 790.912 488.17C790.912 487.174 792.006 486.588 793.793 486.588ZM793.793 487.203C792.484 487.203 791.674 487.564 791.684 488.17C791.674 488.795 792.484 489.156 793.793 489.156C795.111 489.156 795.912 488.795 795.912 488.17C795.912 487.564 795.111 487.203 793.793 487.203ZM801.371 483.775C801.361 485.172 802.367 486.705 803.627 487.301L803.188 487.906C802.211 487.433 801.386 486.397 801 485.221C800.6 486.5 799.726 487.623 798.754 488.121L798.285 487.516C799.535 486.91 800.609 485.26 800.619 483.775V482.643H798.598V482.008H803.324V482.643H801.371V483.775ZM805.15 481.109V484.625H806.605V485.279H805.15V489.791H804.389V481.109H805.15ZM810.502 488.062C810.16 488.062 809.867 487.779 809.877 487.428C809.867 487.086 810.16 486.803 810.502 486.803C810.844 486.803 811.127 487.086 811.127 487.428C811.127 487.779 810.844 488.062 810.502 488.062ZM810.502 484.137C810.16 484.137 809.867 483.854 809.877 483.502C809.867 483.16 810.16 482.877 810.502 482.877C810.844 482.877 811.127 483.16 811.127 483.502C811.127 483.854 810.844 484.137 810.502 484.137ZM816.967 485.904H816.303L816.361 484.391L815.072 485.201L814.74 484.625L816.088 483.922L814.74 483.209L815.072 482.633L816.361 483.443L816.303 481.93H816.967L816.908 483.443L818.197 482.633L818.529 483.209L817.191 483.922L818.529 484.625L818.197 485.201L816.908 484.391L816.967 485.904ZM818.93 489.059C818.588 489.059 818.295 488.775 818.305 488.424C818.295 488.082 818.588 487.799 818.93 487.799C819.271 487.799 819.555 488.082 819.555 488.424C819.555 488.775 819.271 489.059 818.93 489.059ZM822.875 489.107C821.557 489.107 820.619 488.043 820.619 486.363C820.619 484.684 821.557 483.629 822.885 483.629C823.91 483.629 824.242 484.254 824.418 484.537H824.477V481.93H825.326V489H824.506V488.189H824.418C824.232 488.482 823.891 489.107 822.875 489.107ZM822.992 488.355C823.959 488.355 824.506 487.535 824.506 486.344C824.506 485.172 823.979 484.381 822.992 484.381C821.977 484.381 821.469 485.24 821.469 486.344C821.469 487.477 821.986 488.355 822.992 488.355ZM828.949 489.107C827.504 489.107 826.527 488.023 826.527 486.373C826.527 484.723 827.504 483.629 828.949 483.629C830.385 483.629 831.352 484.723 831.352 486.373C831.352 488.023 830.385 489.107 828.949 489.107ZM828.949 488.365C830.014 488.365 830.512 487.428 830.512 486.373C830.512 485.318 830.014 484.371 828.949 484.371C827.865 484.371 827.367 485.318 827.367 486.373C827.367 487.428 827.865 488.365 828.949 488.365ZM834.623 489.107C833.119 489.107 832.201 487.965 832.201 486.373C832.201 484.762 833.158 483.629 834.604 483.629C835.736 483.629 836.576 484.293 836.713 485.299H835.873C835.756 484.811 835.326 484.371 834.623 484.371C833.676 484.371 833.041 485.152 833.041 486.344C833.041 487.574 833.656 488.355 834.623 488.355C835.248 488.355 835.727 488.023 835.873 487.438H836.713C836.576 488.385 835.805 489.107 834.623 489.107ZM838.324 483.697L839.574 485.855L840.834 483.697H841.801L840.092 486.344L841.801 489H840.844L839.574 486.949L838.324 489H837.357L839.027 486.344L837.357 483.697H838.324ZM843.92 488.346L843.158 491.002H842.436L842.973 488.346H843.92ZM849.896 485.904H849.232L849.291 484.391L848.002 485.201L847.67 484.625L849.018 483.922L847.67 483.209L848.002 482.633L849.291 483.443L849.232 481.93H849.896L849.838 483.443L851.127 482.633L851.459 483.209L850.121 483.922L851.459 484.625L851.127 485.201L849.838 484.391L849.896 485.904ZM851.859 489.059C851.518 489.059 851.225 488.775 851.234 488.424C851.225 488.082 851.518 487.799 851.859 487.799C852.201 487.799 852.484 488.082 852.484 488.424C852.484 488.775 852.201 489.059 851.859 489.059ZM854.643 485.816V489H853.803V481.93H854.643V484.527H854.711C854.955 483.98 855.434 483.629 856.273 483.629C857.357 483.629 858.08 484.273 858.08 485.631V489H857.24V485.689C857.24 484.859 856.781 484.381 856.02 484.381C855.229 484.381 854.643 484.898 854.643 485.816ZM860.619 489L859.008 483.697H859.896L861.029 487.74H861.078L862.201 483.697H863.1L864.203 487.721H864.262L865.395 483.697H866.273L864.662 489H863.832L862.68 484.957H862.602L861.459 489H860.619ZM867.201 490.992V483.697H868.012V484.537H868.109C868.285 484.254 868.617 483.629 869.643 483.629C870.971 483.629 871.898 484.684 871.898 486.363C871.898 488.043 870.971 489.107 869.652 489.107C868.637 489.107 868.285 488.482 868.109 488.189H868.041V490.992H867.201ZM868.021 486.344C868.021 487.535 868.559 488.355 869.535 488.355C870.541 488.355 871.059 487.477 871.059 486.344C871.059 485.24 870.551 484.381 869.535 484.381C868.539 484.381 868.021 485.172 868.021 486.344ZM766.342 499.057V499.691H765.375V503.871C765.844 503.837 766.308 503.798 766.752 503.744L766.791 504.311C764.955 504.604 762.875 504.633 761.342 504.643L761.244 503.988L762.416 503.979V499.691H761.459V499.057H766.342ZM768.07 498.109V501.596H769.525V502.24H768.07V506.791H767.309V498.109H768.07ZM763.158 503.969C763.642 503.959 764.145 503.939 764.643 503.91V499.691H763.158V503.969ZM772.455 498.432C773.754 498.441 774.701 499.223 774.701 500.355C774.701 501.488 773.754 502.27 772.455 502.27C771.137 502.27 770.199 501.488 770.199 500.355C770.199 499.223 771.137 498.441 772.455 498.432ZM772.455 499.076C771.586 499.076 770.941 499.604 770.951 500.355C770.941 501.117 771.586 501.645 772.455 501.645C773.314 501.645 773.959 501.117 773.959 500.355C773.959 499.604 773.314 499.076 772.455 499.076ZM777.162 498.109V502.572H776.4V498.109H777.162ZM777.162 502.992V505.082H772.289V506.059H777.475V506.674H771.537V504.506H776.4V503.607H771.518V502.992H777.162ZM788.568 498.109V506.791H787.836V498.109H788.568ZM786.811 498.324V506.342H786.088V501.869H784.623V501.244H786.088V498.324H786.811ZM783.695 500.59C783.695 502.094 784.369 503.588 785.57 504.281L785.102 504.848C784.247 504.335 783.642 503.397 783.344 502.289C783.026 503.485 782.396 504.506 781.527 505.053L781.039 504.477C782.25 503.754 782.953 502.172 782.953 500.59V499.77H781.283V499.135H785.287V499.77H783.695V500.59ZM796.576 498.119V500.98H797.885V501.625H796.576V504.623H795.814V498.119H796.576ZM794.984 499.184V499.809H789.809V499.184H792.016V498.119H792.777V499.184H794.984ZM792.396 500.287C793.637 500.287 794.477 500.922 794.486 501.908C794.477 502.885 793.637 503.51 792.396 503.51C791.146 503.51 790.297 502.885 790.307 501.908C790.297 500.922 791.146 500.287 792.396 500.287ZM792.396 500.893C791.576 500.893 791.029 501.293 791.039 501.908C791.029 502.523 791.576 502.914 792.396 502.904C793.207 502.914 793.754 502.523 793.764 501.908C793.754 501.293 793.207 500.893 792.396 500.893ZM796.977 505.961V506.605H791.146V504.105H791.898V505.961H796.977ZM808.139 498.109V506.811H807.377V501.977H805.297V504.613H801.293V498.793H802.064V501.059H804.545V498.793H805.297V501.342H807.377V498.109H808.139ZM802.064 503.979H804.545V501.674H802.064V503.979ZM816.781 498.119V504.486H816.01V501.156H814.223V500.521H816.01V498.119H816.781ZM817.025 505.961V506.605H811.205V503.91H811.977V505.961H817.025ZM812.602 499.906C812.602 501.029 813.471 502.123 814.74 502.553L814.34 503.168C813.358 502.816 812.602 502.084 812.23 501.186C811.854 502.187 811.054 502.987 810.023 503.373L809.623 502.748C810.902 502.299 811.83 501.156 811.83 499.906V499.457H809.867V498.822H814.545V499.457H812.602V499.906ZM821.654 505.062C821.312 505.062 821.02 504.779 821.029 504.428C821.02 504.086 821.312 503.803 821.654 503.803C821.996 503.803 822.279 504.086 822.279 504.428C822.279 504.779 821.996 505.062 821.654 505.062ZM821.654 501.137C821.312 501.137 821.02 500.854 821.029 500.502C821.02 500.16 821.312 499.877 821.654 499.877C821.996 499.877 822.279 500.16 822.279 500.502C822.279 500.854 821.996 501.137 821.654 501.137ZM832.572 498.119V500.98H833.881V501.625H832.572V504.623H831.811V498.119H832.572ZM830.98 499.184V499.809H825.805V499.184H828.012V498.119H828.773V499.184H830.98ZM828.393 500.287C829.633 500.287 830.473 500.922 830.482 501.908C830.473 502.885 829.633 503.51 828.393 503.51C827.143 503.51 826.293 502.885 826.303 501.908C826.293 500.922 827.143 500.287 828.393 500.287ZM828.393 500.893C827.572 500.893 827.025 501.293 827.035 501.908C827.025 502.523 827.572 502.914 828.393 502.904C829.203 502.914 829.75 502.523 829.76 501.908C829.75 501.293 829.203 500.893 828.393 500.893ZM832.973 505.961V506.605H827.143V504.105H827.895V505.961H832.973ZM841.332 498.49V499.047C841.332 499.638 841.332 500.38 841.137 501.361H842.377V501.977H834.428V501.361H840.365C840.561 500.395 840.57 499.682 840.57 499.115H835.434V498.49H841.332ZM841.361 502.855V505.043H836.156V506.068H841.586V506.693H835.385V504.438H840.6V503.471H835.375V502.855H841.361ZM845.893 506L845.883 505.355L848.295 502.816C849.135 501.928 849.535 501.449 849.535 500.795C849.535 500.072 848.92 499.594 848.129 499.594C847.289 499.594 846.752 500.131 846.752 500.922H845.922C845.912 499.672 846.879 498.832 848.158 498.832C849.438 498.832 850.355 499.691 850.355 500.795C850.355 501.586 849.984 502.201 848.734 503.49L847.113 505.16V505.219H850.482V506H845.893ZM854.076 506.098C852.504 506.098 851.605 504.779 851.605 502.465C851.605 500.17 852.523 498.832 854.076 498.832C855.629 498.832 856.547 500.17 856.547 502.465C856.547 504.779 855.639 506.098 854.076 506.098ZM854.076 505.316C855.092 505.316 855.688 504.291 855.688 502.465C855.688 500.639 855.092 499.594 854.076 499.594C853.061 499.594 852.455 500.639 852.455 502.465C852.455 504.291 853.051 505.316 854.076 505.316ZM860.219 498.93V506H859.33V499.848H859.291L857.572 500.99V500.102L859.33 498.93H860.219ZM864.467 506.098C862.982 506.098 861.947 505.277 861.957 504.125C861.947 503.207 862.582 502.455 863.393 502.328V502.289C862.689 502.123 862.23 501.479 862.23 500.707C862.23 499.623 863.178 498.832 864.467 498.832C865.756 498.832 866.703 499.623 866.713 500.707C866.703 501.479 866.234 502.123 865.541 502.289V502.328C866.342 502.455 866.977 503.207 866.986 504.125C866.977 505.277 865.941 506.098 864.467 506.098ZM864.467 505.326C865.482 505.326 866.107 504.818 866.107 504.076C866.107 503.295 865.414 502.719 864.467 502.719C863.52 502.719 862.816 503.295 862.836 504.076C862.816 504.818 863.451 505.326 864.467 505.326ZM864.467 501.977C865.268 501.977 865.854 501.488 865.854 500.775C865.854 500.072 865.297 499.594 864.467 499.594C863.627 499.594 863.08 500.072 863.08 500.775C863.08 501.488 863.656 501.977 864.467 501.977ZM875.053 498.109V506.811H874.291V501.977H872.211V504.613H868.207V498.793H868.979V501.059H871.459V498.793H872.211V501.342H874.291V498.109H875.053ZM868.979 503.979H871.459V501.674H868.979V503.979ZM883.695 498.119V504.486H882.924V501.156H881.137V500.521H882.924V498.119H883.695ZM883.939 505.961V506.605H878.119V503.91H878.891V505.961H883.939ZM879.516 499.906C879.516 501.029 880.385 502.123 881.654 502.553L881.254 503.168C880.272 502.816 879.516 502.084 879.145 501.186C878.769 502.187 877.968 502.987 876.938 503.373L876.537 502.748C877.816 502.299 878.744 501.156 878.744 499.906V499.457H876.781V498.822H881.459V499.457H879.516V499.906ZM894.809 498.109V506.811H894.037V498.109H894.809ZM890.189 498.783C891.479 498.793 892.406 499.965 892.406 501.811C892.406 503.656 891.479 504.828 890.189 504.828C888.891 504.828 887.973 503.656 887.973 501.811C887.973 499.965 888.891 498.793 890.189 498.783ZM890.189 499.467C889.32 499.477 888.715 500.395 888.715 501.811C888.715 503.227 889.32 504.145 890.189 504.145C891.059 504.145 891.664 503.227 891.664 501.811C891.664 500.395 891.059 499.477 890.189 499.467ZM903.012 498.109V501.693H904.467V502.328H903.012V506.791H902.25V498.109H903.012ZM901.41 499.506V500.141H896.244V499.506H898.48V498.217H899.242V499.506H901.41ZM898.871 500.863C900.102 500.863 900.99 501.684 901 502.855C900.99 504.027 900.102 504.848 898.871 504.848C897.631 504.848 896.732 504.027 896.742 502.855C896.732 501.684 897.631 500.863 898.871 500.863ZM898.871 501.508C898.061 501.508 897.465 502.074 897.475 502.855C897.465 503.646 898.061 504.203 898.871 504.193C899.672 504.203 900.258 503.646 900.268 502.855C900.258 502.074 899.672 501.508 898.871 501.508Z" fill="#7A7A7A"/>
<rect x="153.5" y="215.5" width="374" height="391" rx="9.5" fill="#FBFBFB" stroke="#A9A9A9" stroke-dasharray="8 8"/>
<path d="M234.915 472V454.3H239.355C240.523 454.3 241.575 454.504 242.511 454.912C243.455 455.32 244.259 455.908 244.923 456.676C245.595 457.436 246.111 458.364 246.471 459.46C246.831 460.548 247.011 461.776 247.011 463.144C247.011 464.512 246.831 465.744 246.471 466.84C246.111 467.928 245.595 468.856 244.923 469.624C244.259 470.392 243.455 470.98 242.511 471.388C241.575 471.796 240.523 472 239.355 472H234.915ZM236.979 471.364L236.055 470.2H239.115C240.251 470.2 241.255 469.916 242.127 469.348C243.007 468.772 243.695 467.956 244.191 466.9C244.687 465.844 244.935 464.592 244.935 463.144C244.935 461.688 244.687 460.436 244.191 459.388C243.695 458.332 243.007 457.52 242.127 456.952C241.255 456.384 240.251 456.1 239.115 456.1H236.055L236.979 454.936V471.364ZM250.059 472V459.256H252.099V463.168L251.427 462.928C251.475 462.456 251.595 461.992 251.787 461.536C251.979 461.072 252.243 460.656 252.579 460.288C252.923 459.912 253.351 459.616 253.863 459.4C254.375 459.176 254.975 459.064 255.663 459.064C256.175 459.064 256.591 459.108 256.911 459.196C257.239 459.276 257.443 459.34 257.523 459.388L256.995 461.392C256.915 461.336 256.751 461.264 256.503 461.176C256.263 461.088 255.919 461.044 255.471 461.044C254.807 461.044 254.255 461.164 253.815 461.404C253.383 461.644 253.039 461.964 252.783 462.364C252.535 462.756 252.359 463.184 252.255 463.648C252.151 464.112 252.099 464.572 252.099 465.028V472H250.059ZM263.933 472.24C262.965 472.24 262.117 472.088 261.389 471.784C260.669 471.48 260.109 471.044 259.709 470.476C259.309 469.9 259.109 469.212 259.109 468.412C259.109 467.58 259.325 466.888 259.757 466.336C260.189 465.776 260.797 465.34 261.581 465.028C262.365 464.716 263.277 464.508 264.317 464.404C265.885 464.244 267.001 464.088 267.665 463.936C268.329 463.776 268.661 463.52 268.661 463.168C268.661 463.16 268.661 463.156 268.661 463.156C268.661 463.148 268.661 463.14 268.661 463.132C268.661 462.396 268.361 461.848 267.761 461.488C267.161 461.12 266.293 460.936 265.157 460.936C263.973 460.936 263.053 461.144 262.397 461.56C261.741 461.968 261.413 462.632 261.413 463.552H259.397C259.397 462.6 259.641 461.792 260.129 461.128C260.617 460.456 261.293 459.944 262.157 459.592C263.029 459.24 264.033 459.064 265.169 459.064C266.209 459.064 267.145 459.224 267.977 459.544C268.817 459.856 269.481 460.324 269.969 460.948C270.465 461.564 270.713 462.328 270.713 463.24C270.713 463.408 270.713 463.576 270.713 463.744C270.713 463.904 270.713 464.068 270.713 464.236V469.6C270.713 469.88 270.725 470.152 270.749 470.416C270.773 470.68 270.813 470.912 270.869 471.112C270.941 471.352 271.021 471.548 271.109 471.7C271.197 471.844 271.269 471.944 271.325 472H269.273C269.233 471.96 269.173 471.868 269.093 471.724C269.013 471.572 268.937 471.396 268.865 471.196C268.809 471.036 268.765 470.836 268.733 470.596C268.701 470.348 268.685 470.092 268.685 469.828L269.021 470.056C268.773 470.488 268.409 470.868 267.929 471.196C267.457 471.524 266.885 471.78 266.213 471.964C265.541 472.148 264.781 472.24 263.933 472.24ZM264.257 470.404C265.081 470.404 265.825 470.28 266.489 470.032C267.153 469.776 267.681 469.4 268.073 468.904C268.465 468.408 268.661 467.792 268.661 467.056V464.524L269.117 465.292C268.605 465.492 267.965 465.656 267.197 465.784C266.437 465.904 265.641 466.004 264.809 466.084C263.601 466.196 262.689 466.408 262.073 466.72C261.465 467.032 261.161 467.556 261.161 468.292C261.161 468.988 261.413 469.516 261.917 469.876C262.421 470.228 263.201 470.404 264.257 470.404ZM282.242 471.22C282.93 471.276 283.534 471.404 284.054 471.604C284.582 471.796 284.994 472.08 285.29 472.456C285.586 472.84 285.734 473.34 285.734 473.956C285.734 474.636 285.502 475.236 285.038 475.756C284.574 476.284 283.87 476.696 282.926 476.992C281.982 477.288 280.794 477.436 279.362 477.436C277.338 477.436 275.81 477.14 274.778 476.548C273.746 475.964 273.23 475.164 273.23 474.148C273.23 473.828 273.266 473.544 273.338 473.296C273.418 473.056 273.506 472.86 273.602 472.708L275.546 472.996C275.482 473.084 275.418 473.216 275.354 473.392C275.298 473.576 275.27 473.788 275.27 474.028C275.27 474.668 275.634 475.116 276.362 475.372C277.09 475.636 278.122 475.768 279.458 475.768C280.458 475.768 281.278 475.7 281.918 475.564C282.558 475.428 283.034 475.232 283.346 474.976C283.658 474.72 283.814 474.42 283.814 474.076C283.814 473.556 283.594 473.232 283.154 473.104C282.722 472.984 282.186 472.9 281.546 472.852L276.698 472.492C275.89 472.428 275.23 472.18 274.718 471.748C274.214 471.308 273.962 470.776 273.962 470.152C273.962 469.768 274.054 469.404 274.238 469.06C274.43 468.716 274.65 468.428 274.898 468.196C275.154 467.956 275.382 467.812 275.582 467.764L277.19 468.496C276.99 468.528 276.742 468.668 276.446 468.916C276.158 469.156 276.014 469.44 276.014 469.768C276.014 470.064 276.13 470.308 276.362 470.5C276.594 470.684 277.054 470.804 277.742 470.86L282.242 471.22ZM284.006 459.256H285.926L285.134 464.272C284.99 465.208 284.69 466.056 284.234 466.816C283.778 467.568 283.154 468.168 282.362 468.616C281.578 469.056 280.606 469.276 279.446 469.276C278.238 469.276 277.206 469.056 276.35 468.616C275.494 468.176 274.838 467.576 274.382 466.816C273.926 466.048 273.698 465.184 273.698 464.224C273.698 463.248 273.934 462.372 274.406 461.596C274.886 460.812 275.55 460.196 276.398 459.748C277.246 459.292 278.218 459.064 279.314 459.064C280.298 459.064 281.158 459.236 281.894 459.58C282.63 459.916 283.21 460.34 283.634 460.852C284.066 461.364 284.306 461.88 284.354 462.4L283.586 462.448L284.006 459.256ZM279.434 467.452C280.21 467.452 280.874 467.324 281.426 467.068C281.986 466.812 282.414 466.44 282.71 465.952C283.014 465.464 283.166 464.872 283.166 464.176C283.166 463.504 283.014 462.924 282.71 462.436C282.414 461.94 281.986 461.56 281.426 461.296C280.874 461.024 280.214 460.888 279.446 460.888C278.71 460.888 278.058 461.028 277.49 461.308C276.93 461.58 276.49 461.964 276.17 462.46C275.858 462.956 275.702 463.54 275.702 464.212C275.702 464.892 275.85 465.476 276.146 465.964C276.45 466.444 276.878 466.812 277.43 467.068C277.99 467.324 278.658 467.452 279.434 467.452ZM296.303 472V461.056H293.519V459.256H296.303V457.612C296.303 457.044 296.367 456.524 296.495 456.052C296.631 455.572 296.823 455.148 297.071 454.78C297.327 454.412 297.635 454.1 297.995 453.844C298.355 453.588 298.763 453.396 299.219 453.268C299.683 453.132 300.187 453.064 300.731 453.064C301.123 453.064 301.435 453.088 301.667 453.136C301.899 453.184 302.055 453.228 302.135 453.268V455.068C302.039 455.036 301.879 455 301.655 454.96C301.431 454.92 301.191 454.9 300.935 454.9C300.391 454.9 299.947 454.984 299.603 455.152C299.267 455.32 299.007 455.552 298.823 455.848C298.639 456.136 298.511 456.464 298.439 456.832C298.375 457.2 298.343 457.584 298.343 457.984V459.256H302.063V461.056H298.343V472H296.303ZM304.547 472V459.256H306.563V472H304.547ZM305.567 456.328C305.191 456.328 304.863 456.224 304.583 456.016C304.311 455.8 304.175 455.508 304.175 455.14C304.175 454.78 304.311 454.496 304.583 454.288C304.863 454.072 305.191 453.964 305.567 453.964C305.943 453.964 306.267 454.072 306.539 454.288C306.811 454.496 306.947 454.78 306.947 455.14C306.947 455.508 306.811 455.8 306.539 456.016C306.267 456.224 305.943 456.328 305.567 456.328ZM312.559 453.244V472H310.543V453.244H312.559ZM316.953 466.444V464.62H326.805L326.445 465.22C326.445 465.172 326.445 465.128 326.445 465.088C326.445 465.04 326.445 464.996 326.445 464.956C326.445 464.22 326.289 463.548 325.977 462.94C325.673 462.324 325.217 461.832 324.609 461.464C324.001 461.096 323.249 460.912 322.353 460.912C321.449 460.912 320.653 461.104 319.965 461.488C319.277 461.872 318.741 462.416 318.357 463.12C317.973 463.816 317.781 464.648 317.781 465.616C317.781 466.6 317.965 467.448 318.333 468.16C318.709 468.872 319.241 469.42 319.929 469.804C320.617 470.188 321.433 470.38 322.377 470.38C323.049 470.38 323.633 470.312 324.129 470.176C324.625 470.032 325.033 469.844 325.353 469.612C325.681 469.372 325.929 469.112 326.097 468.832C326.265 468.552 326.365 468.272 326.397 467.992H328.437C328.397 468.504 328.237 469.012 327.957 469.516C327.677 470.02 327.281 470.48 326.769 470.896C326.257 471.304 325.629 471.632 324.885 471.88C324.141 472.128 323.285 472.252 322.317 472.252C321.037 472.252 319.909 471.972 318.933 471.412C317.957 470.852 317.189 470.076 316.629 469.084C316.077 468.092 315.801 466.952 315.801 465.664C315.801 464.36 316.081 463.216 316.641 462.232C317.201 461.24 317.973 460.464 318.957 459.904C319.941 459.344 321.065 459.064 322.329 459.064C323.617 459.064 324.733 459.344 325.677 459.904C326.621 460.464 327.349 461.232 327.861 462.208C328.373 463.176 328.629 464.28 328.629 465.52C328.629 465.648 328.625 465.816 328.617 466.024C328.609 466.232 328.597 466.372 328.581 466.444H316.953ZM342.849 472.192C342.457 472.192 342.073 472.148 341.697 472.06C341.321 471.972 340.981 471.816 340.677 471.592C340.381 471.36 340.145 471.036 339.969 470.62C339.793 470.196 339.705 469.652 339.705 468.988C339.705 468.82 339.705 468.648 339.705 468.472C339.705 468.288 339.705 468.096 339.705 467.896V461.056H336.597V459.256H338.589C338.861 459.256 339.073 459.248 339.225 459.232C339.377 459.208 339.485 459.156 339.549 459.076C339.621 458.988 339.665 458.856 339.681 458.68C339.697 458.496 339.705 458.244 339.705 457.924V455.032H341.757V459.256H345.741V461.056H341.757V467.236C341.757 467.412 341.757 467.584 341.757 467.752C341.757 467.92 341.757 468.076 341.757 468.22C341.757 468.9 341.837 469.432 341.997 469.816C342.165 470.2 342.537 470.392 343.113 470.392C343.345 470.392 343.565 470.372 343.773 470.332C343.981 470.292 344.137 470.252 344.241 470.212V471.988C344.105 472.036 343.913 472.08 343.665 472.12C343.425 472.168 343.153 472.192 342.849 472.192ZM353.97 472.228C352.69 472.228 351.558 471.944 350.574 471.376C349.598 470.8 348.83 470.016 348.27 469.024C347.718 468.024 347.442 466.888 347.442 465.616C347.442 464.344 347.718 463.216 348.27 462.232C348.83 461.248 349.598 460.476 350.574 459.916C351.558 459.356 352.69 459.076 353.97 459.076C355.25 459.076 356.378 459.356 357.354 459.916C358.338 460.476 359.106 461.248 359.658 462.232C360.218 463.216 360.498 464.344 360.498 465.616C360.498 466.888 360.218 468.024 359.658 469.024C359.106 470.016 358.338 470.8 357.354 471.376C356.378 471.944 355.25 472.228 353.97 472.228ZM353.97 470.356C354.85 470.356 355.626 470.16 356.298 469.768C356.97 469.376 357.494 468.824 357.87 468.112C358.254 467.4 358.446 466.568 358.446 465.616C358.446 464.664 358.254 463.84 357.87 463.144C357.494 462.44 356.97 461.9 356.298 461.524C355.626 461.14 354.85 460.948 353.97 460.948C353.098 460.948 352.322 461.14 351.642 461.524C350.97 461.9 350.442 462.44 350.058 463.144C349.682 463.84 349.494 464.664 349.494 465.616C349.494 466.568 349.682 467.4 350.058 468.112C350.442 468.824 350.97 469.376 351.642 469.768C352.322 470.16 353.098 470.356 353.97 470.356ZM374.388 472.228C373.476 472.228 372.716 472.072 372.108 471.76C371.5 471.44 371.016 471.028 370.656 470.524C370.304 470.02 370.052 469.476 369.9 468.892C369.756 468.3 369.684 467.732 369.684 467.188C369.684 466.884 369.684 466.572 369.684 466.252C369.684 465.924 369.684 465.596 369.684 465.268V459.256H371.736V465.004C371.736 465.3 371.736 465.592 371.736 465.88C371.736 466.168 371.736 466.44 371.736 466.696C371.736 467.344 371.824 467.944 372 468.496C372.184 469.048 372.5 469.496 372.948 469.84C373.396 470.176 374.012 470.344 374.796 470.344C375.532 470.344 376.176 470.124 376.728 469.684C377.28 469.236 377.712 468.68 378.024 468.016C378.336 467.344 378.492 466.676 378.492 466.012L379.68 466.504C379.68 467.208 379.556 467.9 379.308 468.58C379.06 469.252 378.704 469.864 378.24 470.416C377.784 470.968 377.228 471.408 376.572 471.736C375.924 472.064 375.196 472.228 374.388 472.228ZM378.492 472V459.256H380.532V472H378.492ZM384.074 477.244V459.256H386.114V477.244H384.074ZM390.302 472.24C389.318 472.24 388.398 472 387.542 471.52C386.686 471.032 385.99 470.364 385.454 469.516C384.926 468.668 384.662 467.7 384.662 466.612C384.662 466.588 384.662 466.568 384.662 466.552C384.662 466.536 384.662 466.516 384.662 466.492L386.126 466.456C386.126 466.472 386.126 466.492 386.126 466.516C386.126 466.532 386.126 466.548 386.126 466.564C386.126 467.252 386.306 467.88 386.666 468.448C387.034 469.016 387.514 469.468 388.106 469.804C388.698 470.14 389.334 470.308 390.014 470.308C391.142 470.308 392.078 469.924 392.822 469.156C393.574 468.38 393.95 467.2 393.95 465.616C393.95 464.024 393.578 462.848 392.834 462.088C392.09 461.32 391.15 460.936 390.014 460.936C389.334 460.936 388.698 461.104 388.106 461.44C387.514 461.768 387.034 462.212 386.666 462.772C386.306 463.332 386.126 463.96 386.126 464.656L384.662 464.608C384.662 463.512 384.926 462.548 385.454 461.716C385.99 460.884 386.686 460.236 387.542 459.772C388.398 459.3 389.318 459.064 390.302 459.064C391.334 459.064 392.286 459.32 393.158 459.832C394.03 460.336 394.73 461.076 395.258 462.052C395.786 463.028 396.05 464.216 396.05 465.616C396.05 467.04 395.79 468.248 395.27 469.24C394.75 470.224 394.054 470.972 393.182 471.484C392.31 471.988 391.35 472.24 390.302 472.24ZM401.434 453.244V472H399.418V453.244H401.434ZM411.204 472.228C409.924 472.228 408.792 471.944 407.808 471.376C406.832 470.8 406.064 470.016 405.504 469.024C404.952 468.024 404.676 466.888 404.676 465.616C404.676 464.344 404.952 463.216 405.504 462.232C406.064 461.248 406.832 460.476 407.808 459.916C408.792 459.356 409.924 459.076 411.204 459.076C412.484 459.076 413.612 459.356 414.588 459.916C415.572 460.476 416.34 461.248 416.892 462.232C417.452 463.216 417.732 464.344 417.732 465.616C417.732 466.888 417.452 468.024 416.892 469.024C416.34 470.016 415.572 470.8 414.588 471.376C413.612 471.944 412.484 472.228 411.204 472.228ZM411.204 470.356C412.084 470.356 412.86 470.16 413.532 469.768C414.204 469.376 414.728 468.824 415.104 468.112C415.488 467.4 415.68 466.568 415.68 465.616C415.68 464.664 415.488 463.84 415.104 463.144C414.728 462.44 414.204 461.9 413.532 461.524C412.86 461.14 412.084 460.948 411.204 460.948C410.332 460.948 409.556 461.14 408.876 461.524C408.204 461.9 407.676 462.44 407.292 463.144C406.916 463.84 406.728 464.664 406.728 465.616C406.728 466.568 406.916 467.4 407.292 468.112C407.676 468.824 408.204 469.376 408.876 469.768C409.556 470.16 410.332 470.356 411.204 470.356ZM425.37 472.24C424.402 472.24 423.554 472.088 422.826 471.784C422.106 471.48 421.546 471.044 421.146 470.476C420.746 469.9 420.546 469.212 420.546 468.412C420.546 467.58 420.762 466.888 421.194 466.336C421.626 465.776 422.234 465.34 423.018 465.028C423.802 464.716 424.714 464.508 425.754 464.404C427.322 464.244 428.438 464.088 429.102 463.936C429.766 463.776 430.098 463.52 430.098 463.168C430.098 463.16 430.098 463.156 430.098 463.156C430.098 463.148 430.098 463.14 430.098 463.132C430.098 462.396 429.798 461.848 429.198 461.488C428.598 461.12 427.73 460.936 426.594 460.936C425.41 460.936 424.49 461.144 423.834 461.56C423.178 461.968 422.85 462.632 422.85 463.552H420.834C420.834 462.6 421.078 461.792 421.566 461.128C422.054 460.456 422.73 459.944 423.594 459.592C424.466 459.24 425.47 459.064 426.606 459.064C427.646 459.064 428.582 459.224 429.414 459.544C430.254 459.856 430.918 460.324 431.406 460.948C431.902 461.564 432.15 462.328 432.15 463.24C432.15 463.408 432.15 463.576 432.15 463.744C432.15 463.904 432.15 464.068 432.15 464.236V469.6C432.15 469.88 432.162 470.152 432.186 470.416C432.21 470.68 432.25 470.912 432.306 471.112C432.378 471.352 432.458 471.548 432.546 471.7C432.634 471.844 432.706 471.944 432.762 472H430.71C430.67 471.96 430.61 471.868 430.53 471.724C430.45 471.572 430.374 471.396 430.302 471.196C430.246 471.036 430.202 470.836 430.17 470.596C430.138 470.348 430.122 470.092 430.122 469.828L430.458 470.056C430.21 470.488 429.846 470.868 429.366 471.196C428.894 471.524 428.322 471.78 427.65 471.964C426.978 472.148 426.218 472.24 425.37 472.24ZM425.694 470.404C426.518 470.404 427.262 470.28 427.926 470.032C428.59 469.776 429.118 469.4 429.51 468.904C429.902 468.408 430.098 467.792 430.098 467.056V464.524L430.554 465.292C430.042 465.492 429.402 465.656 428.634 465.784C427.874 465.904 427.078 466.004 426.246 466.084C425.038 466.196 424.126 466.408 423.51 466.72C422.902 467.032 422.598 467.556 422.598 468.292C422.598 468.988 422.85 469.516 423.354 469.876C423.858 470.228 424.638 470.404 425.694 470.404ZM440.799 472.24C439.751 472.24 438.791 471.988 437.919 471.484C437.047 470.972 436.351 470.224 435.831 469.24C435.311 468.248 435.051 467.04 435.051 465.616C435.051 464.216 435.315 463.028 435.843 462.052C436.371 461.076 437.071 460.336 437.943 459.832C438.815 459.32 439.767 459.064 440.799 459.064C441.783 459.064 442.703 459.3 443.559 459.772C444.423 460.236 445.119 460.884 445.647 461.716C446.175 462.548 446.439 463.512 446.439 464.608C446.439 464.632 446.439 464.656 446.439 464.68C446.439 464.704 446.439 464.728 446.439 464.752L444.975 464.812C444.975 464.788 444.975 464.764 444.975 464.74C444.975 464.708 444.975 464.68 444.975 464.656C444.975 463.96 444.791 463.332 444.423 462.772C444.063 462.212 443.587 461.768 442.995 461.44C442.403 461.104 441.767 460.936 441.087 460.936C439.951 460.936 439.011 461.32 438.267 462.088C437.523 462.848 437.151 464.024 437.151 465.616C437.151 467.2 437.523 468.38 438.267 469.156C439.019 469.924 439.959 470.308 441.087 470.308C441.799 470.308 442.447 470.136 443.031 469.792C443.623 469.448 444.095 468.988 444.447 468.412C444.799 467.828 444.975 467.176 444.975 466.456L446.439 466.492C446.439 467.58 446.187 468.56 445.683 469.432C445.179 470.296 444.499 470.98 443.643 471.484C442.795 471.988 441.847 472.24 440.799 472.24ZM444.975 472V453.244H447.027V472H444.975Z" fill="#8C8C8C"/>
<path d="M343.499 405.5C343.499 406.163 343.236 406.799 342.767 407.268C342.298 407.737 341.662 408 340.999 408C340.336 408 339.7 407.737 339.231 407.268C338.763 406.799 338.499 406.163 338.499 405.5V386.535L332.769 392.27C332.3 392.739 331.663 393.003 330.999 393.003C330.335 393.003 329.699 392.739 329.229 392.27C328.76 391.801 328.496 391.164 328.496 390.5C328.496 389.836 328.76 389.199 329.229 388.73L339.229 378.73C339.461 378.497 339.737 378.312 340.041 378.186C340.345 378.06 340.67 377.996 340.999 377.996C341.328 377.996 341.654 378.06 341.957 378.186C342.261 378.312 342.537 378.497 342.769 378.73L352.769 388.73C353.239 389.199 353.502 389.836 353.502 390.5C353.502 391.164 353.239 391.801 352.769 392.27C352.3 392.739 351.663 393.003 350.999 393.003C350.335 393.003 349.699 392.739 349.229 392.27L343.499 386.535V405.5Z" fill="#A9A9A9"/>
<path d="M371 418V370.5L348.5 348H321C318.348 348 315.804 349.054 313.929 350.929C312.054 352.804 311 355.348 311 358V418C311 420.652 312.054 423.196 313.929 425.071C315.804 426.946 318.348 428 321 428H361C363.652 428 366.196 426.946 368.071 425.071C369.946 423.196 371 420.652 371 418ZM348.5 363C348.5 364.989 349.29 366.897 350.697 368.303C352.103 369.71 354.011 370.5 356 370.5H366V418C366 419.326 365.473 420.598 364.536 421.536C363.598 422.473 362.326 423 361 423H321C319.674 423 318.402 422.473 317.464 421.536C316.527 420.598 316 419.326 316 418V358C316 356.674 316.527 355.402 317.464 354.464C318.402 353.527 319.674 353 321 353H348.5V363Z" fill="#A9A9A9"/>
<line x1="111" y1="159.5" x2="1135" y2="159.5" stroke="#303A63" stroke-width="3"/>
<path d="M1046 140H1048V138H1046V140ZM1047 124C1041.48 124 1037 128.48 1037 134C1037 139.52 1041.48 144 1047 144C1052.52 144 1057 139.52 1057 134C1057 128.48 1052.52 124 1047 124ZM1047 142C1042.59 142 1039 138.41 1039 134C1039 129.59 1042.59 126 1047 126C1051.41 126 1055 129.59 1055 134C1055 138.41 1051.41 142 1047 142ZM1047 128C1044.79 128 1043 129.79 1043 132H1045C1045 130.9 1045.9 130 1047 130C1048.1 130 1049 130.9 1049 132C1049 134 1046 133.75 1046 137H1048C1048 134.75 1051 134.5 1051 132C1051 129.79 1049.21 128 1047 128Z" fill="#C8C8C8"/>
<path d="M1064.72 127.51H1066.34V129.535C1066.34 132.97 1065.14 136.195 1062.52 137.485L1061.32 135.88C1063.66 134.785 1064.72 132.115 1064.72 129.535V127.51ZM1065.13 127.51H1066.72V129.535C1066.72 132.025 1067.71 134.56 1069.93 135.64L1068.73 137.23C1066.22 135.955 1065.13 132.865 1065.13 129.535V127.51ZM1070.48 126.445H1072.49V140.335H1070.48V126.445ZM1072.04 131.785H1074.5V133.45H1072.04V131.785ZM1078.22 131.095H1080.21V133.645H1078.22V131.095ZM1083.11 131.095H1085.09V133.645H1083.11V131.095ZM1075.4 133.03H1087.95V134.605H1075.4V133.03ZM1081.65 135.31C1084.65 135.31 1086.47 136.21 1086.47 137.815C1086.47 139.435 1084.65 140.335 1081.65 140.335C1078.64 140.335 1076.82 139.435 1076.82 137.815C1076.82 136.21 1078.64 135.31 1081.65 135.31ZM1081.65 136.81C1079.79 136.81 1078.85 137.125 1078.85 137.815C1078.85 138.52 1079.79 138.835 1081.65 138.835C1083.51 138.835 1084.46 138.52 1084.46 137.815C1084.46 137.125 1083.51 136.81 1081.65 136.81ZM1081.68 126.64C1084.74 126.64 1086.71 127.66 1086.71 129.325C1086.71 130.975 1084.74 131.965 1081.68 131.965C1078.61 131.965 1076.66 130.975 1076.66 129.325C1076.66 127.66 1078.61 126.64 1081.68 126.64ZM1081.68 128.17C1079.78 128.17 1078.71 128.545 1078.71 129.325C1078.71 130.09 1079.78 130.465 1081.68 130.465C1083.59 130.465 1084.65 130.09 1084.65 129.325C1084.65 128.545 1083.59 128.17 1081.68 128.17ZM1089.59 127.87H1095.08V136.87H1089.59V127.87ZM1093.22 129.43H1091.45V135.31H1093.22V129.43ZM1099.23 126.445H1101.14V140.335H1099.23V126.445ZM1094.07 131.485H1097.19V133.09H1094.07V131.485ZM1096.4 126.655H1098.27V139.705H1096.4V126.655ZM1104.51 130.81H1114.17V132.4H1104.51V130.81ZM1104.51 127.075H1106.51V131.53H1104.51V127.075ZM1103.01 133.93H1115.57V135.535H1103.01V133.93ZM1105.86 134.5H1107.86V140.335H1105.86V134.5ZM1110.71 134.5H1112.7V140.335H1110.71V134.5ZM1126.43 126.445H1128.42V133.375H1126.43V126.445ZM1123.64 129.205H1127.18V130.795H1123.64V129.205ZM1120.64 126.82C1122.74 126.82 1124.3 128.14 1124.3 130.015C1124.3 131.875 1122.74 133.21 1120.64 133.21C1118.54 133.21 1116.96 131.875 1116.96 130.015C1116.96 128.14 1118.54 126.82 1120.64 126.82ZM1120.64 128.44C1119.62 128.44 1118.87 129.025 1118.87 130.015C1118.87 131.02 1119.62 131.605 1120.64 131.605C1121.66 131.605 1122.39 131.02 1122.39 130.015C1122.39 129.025 1121.66 128.44 1120.64 128.44ZM1119.24 133.975H1128.42V137.755H1121.24V139.45H1119.26V136.315H1126.44V135.505H1119.24V133.975ZM1119.26 138.64H1128.81V140.185H1119.26V138.64Z" fill="#C8C8C8"/>
<mask id="path-21-inside-1_479_3" fill="white">
<path d="M111 61H1135V124H111V61Z"/>
</mask>
<path d="M111 61H1135V124H111V61Z" fill="white"/>
<path d="M119 124V61H103V124H119Z" fill="#303A63" mask="url(#path-21-inside-1_479_3)"/>
<path d="M141.44 91.32H171.608V95.136H141.44V91.32ZM154.508 93.732H159.332V100.752H154.508V93.732ZM145.148 76.272H167.792V88.656H145.148V76.272ZM163.076 80.016H149.828V84.912H163.076V80.016ZM144.932 103.812H168.296V107.628H144.932V103.812ZM144.932 97.944H149.684V105.072H144.932V97.944ZM191.369 85.272H200.153V89.124H191.369V85.272ZM182.297 77.424H186.185V82.248C186.185 90.636 183.341 98.376 177.077 101.508L174.089 97.656C179.777 95.028 182.297 88.584 182.297 82.248V77.424ZM183.305 77.424H187.121V82.248C187.121 88.584 189.533 94.668 195.041 97.116L192.197 100.932C185.933 97.908 183.305 90.564 183.305 82.248V77.424ZM197.777 74.832H202.529V108.276H197.777V74.832ZM233.522 82.212H241.874V86.064H233.522V82.212ZM225.89 76.236C230.894 76.236 234.674 79.584 234.674 84.192C234.674 88.836 230.894 92.148 225.89 92.148C220.85 92.148 217.07 88.836 217.07 84.192C217.07 79.584 220.85 76.236 225.89 76.236ZM225.89 80.232C223.442 80.232 221.642 81.708 221.642 84.192C221.642 86.676 223.442 88.188 225.89 88.188C228.338 88.188 230.102 86.676 230.102 84.192C230.102 81.708 228.338 80.232 225.89 80.232ZM239.786 74.868H244.574V92.796H239.786V74.868ZM222.434 94.236H227.186V97.404H239.822V94.236H244.574V107.844H222.434V94.236ZM227.186 101.076V104.028H239.822V101.076H227.186ZM249.828 100.644H279.996V104.532H249.828V100.644ZM262.464 94.344H267.252V102.228H262.464V94.344ZM253.212 77.028H276.612V88.116H258.036V93.732H253.284V84.372H271.86V80.808H253.212V77.028ZM253.284 91.824H277.368V95.676H253.284V91.824ZM286.437 90.24H309.873V94.056H286.437V90.24ZM282.945 100.284H313.113V104.208H282.945V100.284ZM286.437 77.604H309.621V81.492H291.189V91.824H286.437V77.604Z" fill="black"/>
<path d="M761.957 433.195C758.812 433.195 757.016 430.559 757.016 425.93C757.016 421.34 758.852 418.664 761.957 418.664C765.062 418.664 766.898 421.34 766.898 425.93C766.898 430.559 765.082 433.195 761.957 433.195ZM761.957 431.633C763.988 431.633 765.18 429.582 765.18 425.93C765.18 422.277 763.988 420.188 761.957 420.188C759.926 420.188 758.715 422.277 758.715 425.93C758.715 429.582 759.906 431.633 761.957 431.633ZM779.32 418.195L774.75 435.129H773.227L777.777 418.195H779.32ZM785.961 433L785.941 431.711L790.766 426.633C792.445 424.855 793.246 423.898 793.246 422.59C793.246 421.145 792.016 420.188 790.434 420.188C788.754 420.188 787.68 421.262 787.68 422.844H786.02C786 420.344 787.934 418.664 790.492 418.664C793.051 418.664 794.887 420.383 794.887 422.59C794.887 424.172 794.145 425.402 791.645 427.98L788.402 431.32V431.438H795.141V433H785.961ZM802.328 433.195C799.184 433.195 797.387 430.559 797.387 425.93C797.387 421.34 799.223 418.664 802.328 418.664C805.434 418.664 807.27 421.34 807.27 425.93C807.27 430.559 805.453 433.195 802.328 433.195ZM802.328 431.633C804.359 431.633 805.551 429.582 805.551 425.93C805.551 422.277 804.359 420.188 802.328 420.188C800.297 420.188 799.086 422.277 799.086 425.93C799.086 429.582 800.277 431.633 802.328 431.633ZM810.316 433.117C809.633 433.117 809.047 432.551 809.066 431.848C809.047 431.164 809.633 430.598 810.316 430.598C811 430.598 811.566 431.164 811.566 431.848C811.566 432.551 811 433.117 810.316 433.117ZM818.305 433.195C815.16 433.195 813.363 430.559 813.363 425.93C813.363 421.34 815.199 418.664 818.305 418.664C821.41 418.664 823.246 421.34 823.246 425.93C823.246 430.559 821.43 433.195 818.305 433.195ZM818.305 431.633C820.336 431.633 821.527 429.582 821.527 425.93C821.527 422.277 820.336 420.188 818.305 420.188C816.273 420.188 815.062 422.277 815.062 425.93C815.062 429.582 816.254 431.633 818.305 431.633ZM825.824 418.859H827.934L832.699 430.5H832.875L837.641 418.859H839.75V433H838.09V422.316H837.953L833.559 433H831.996L827.602 422.316H827.484V433H825.824V418.859ZM842.875 433V418.859H847.836C850.805 418.859 852.191 420.52 852.191 422.609C852.191 424.426 851.117 425.246 849.887 425.578V425.715C851.195 425.793 852.758 427.004 852.758 429.25C852.758 431.379 851.352 433 848.012 433H842.875ZM847.992 431.438C850.199 431.438 851.059 430.461 851.059 429.23C851.059 427.785 849.906 426.574 848.09 426.574H844.633V431.438H847.992ZM847.777 425.051C849.301 425.051 850.512 424.113 850.512 422.629C850.512 421.398 849.691 420.422 847.836 420.422H844.633V425.051H847.777Z" fill="#7A7A7A"/>
</svg>
